<svg width="372" height="175" viewBox="0 0 372 175" fill="none" xmlns="http://www.w3.org/2000/svg">
<g clip-path="url(#clip0_269_5473)">
<path d="M0.5 86.5H371.5" stroke="#2D60E3" stroke-linecap="round"/>
<path d="M186 173.5V0.5" stroke="#2D60E3" stroke-linecap="round"/>
<circle cx="14.6279" cy="14" r="3.12791" stroke="#B1BBD6"/>
<circle cx="43.1904" cy="14" r="3.12791" stroke="#B1BBD6"/>
<circle cx="71.7519" cy="14" r="3.12791" stroke="#B1BBD6"/>
<circle cx="100.314" cy="14" r="3.12791" stroke="#B1BBD6"/>
<circle cx="128.876" cy="14" r="3.12791" stroke="#B1BBD6"/>
<circle cx="157.438" cy="14" r="3.12791" stroke="#B1BBD6"/>
<circle cx="186" cy="14" r="3.12791" fill="white" stroke="#2D60E3"/>
<circle cx="214.562" cy="14" r="3.12791" stroke="#B1BBD6"/>
<circle cx="243.124" cy="14" r="3.12791" stroke="#B1BBD6"/>
<circle cx="271.686" cy="14" r="3.12791" stroke="#B1BBD6"/>
<circle cx="300.248" cy="14" r="3.12791" stroke="#B1BBD6"/>
<circle cx="328.811" cy="14" r="3.12791" stroke="#B1BBD6"/>
<circle cx="357.372" cy="14" r="3.12791" stroke="#B1BBD6"/>
<circle cx="14.6279" cy="38.2558" r="3.12791" stroke="#B1BBD6"/>
<circle cx="43.1904" cy="38.2558" r="3.12791" stroke="#B1BBD6"/>
<circle cx="71.7519" cy="38.2558" r="3.12791" stroke="#B1BBD6"/>
<circle cx="100.314" cy="38.2558" r="3.12791" stroke="#B1BBD6"/>
<circle cx="128.876" cy="38.2558" r="3.12791" stroke="#B1BBD6"/>
<circle cx="157.438" cy="38.2558" r="3.12791" stroke="#B1BBD6"/>
<circle cx="186" cy="38.2558" r="3.12791" fill="white" stroke="#2D60E3"/>
<circle cx="214.562" cy="38.2558" r="3.12791" stroke="#B1BBD6"/>
<circle cx="243.124" cy="38.2558" r="3.12791" stroke="#B1BBD6"/>
<circle cx="271.686" cy="38.2558" r="3.12791" stroke="#B1BBD6"/>
<circle cx="300.248" cy="38.2558" r="3.12791" stroke="#B1BBD6"/>
<circle cx="328.811" cy="38.2558" r="3.12791" stroke="#B1BBD6"/>
<circle cx="357.372" cy="38.2558" r="3.12791" stroke="#B1BBD6"/>
<circle cx="14.6279" cy="62.5116" r="3.12791" stroke="#B1BBD6"/>
<circle cx="43.1904" cy="62.5116" r="3.12791" stroke="#B1BBD6"/>
<circle cx="71.7519" cy="62.5116" r="3.12791" stroke="#B1BBD6"/>
<circle cx="100.314" cy="62.5116" r="3.12791" stroke="#B1BBD6"/>
<circle cx="128.876" cy="62.5116" r="3.12791" stroke="#B1BBD6"/>
<circle cx="157.438" cy="62.5116" r="3.12791" stroke="#B1BBD6"/>
<circle cx="186" cy="62.5116" r="3.12791" fill="white" stroke="#2D60E3"/>
<circle cx="214.562" cy="62.5116" r="3.12791" stroke="#B1BBD6"/>
<circle cx="243.124" cy="62.5116" r="3.12791" stroke="#B1BBD6"/>
<circle cx="271.686" cy="62.5116" r="3.12791" stroke="#B1BBD6"/>
<circle cx="300.248" cy="62.5116" r="3.12791" stroke="#B1BBD6"/>
<circle cx="328.811" cy="62.5116" r="3.12791" stroke="#B1BBD6"/>
<circle cx="357.372" cy="62.5116" r="3.12791" stroke="#B1BBD6"/>
<circle cx="14.6279" cy="86.7674" r="3.12791" fill="white" stroke="#2D60E3"/>
<circle cx="43.1904" cy="86.7674" r="3.12791" fill="white" stroke="#2D60E3"/>
<circle cx="71.7519" cy="86.7674" r="3.12791" fill="white" stroke="#2D60E3"/>
<circle cx="100.314" cy="86.7674" r="3.12791" fill="white" stroke="#2D60E3"/>
<circle cx="128.876" cy="86.7674" r="3.12791" fill="white" stroke="#2D60E3"/>
<circle cx="157.438" cy="86.7674" r="3.12791" fill="white" stroke="#2D60E3"/>
<circle cx="186" cy="86.7674" r="3.12791" fill="white" stroke="#2D60E3"/>
<circle cx="214.562" cy="86.7674" r="3.12791" fill="white" stroke="#2D60E3"/>
<circle cx="243.124" cy="86.7674" r="3.12791" fill="white" stroke="#2D60E3"/>
<circle cx="271.686" cy="86.7674" r="3.12791" fill="white" stroke="#2D60E3"/>
<circle cx="300.248" cy="86.7674" r="3.12791" fill="white" stroke="#2D60E3"/>
<circle cx="328.811" cy="86.7674" r="3.12791" fill="white" stroke="#2D60E3"/>
<circle cx="357.372" cy="86.7674" r="3.12791" fill="white" stroke="#2D60E3"/>
<circle cx="14.6279" cy="111.023" r="3.12791" stroke="#B1BBD6"/>
<circle cx="43.1904" cy="111.023" r="3.12791" stroke="#B1BBD6"/>
<circle cx="71.7519" cy="111.023" r="3.12791" stroke="#B1BBD6"/>
<circle cx="100.314" cy="111.023" r="3.12791" stroke="#B1BBD6"/>
<circle cx="128.876" cy="111.023" r="3.12791" stroke="#B1BBD6"/>
<circle cx="157.438" cy="111.023" r="3.12791" stroke="#B1BBD6"/>
<circle cx="186" cy="111.023" r="3.12791" fill="white" stroke="#2D60E3"/>
<circle cx="214.562" cy="111.023" r="3.12791" stroke="#B1BBD6"/>
<circle cx="243.124" cy="111.023" r="3.12791" stroke="#B1BBD6"/>
<circle cx="271.686" cy="111.023" r="3.12791" stroke="#B1BBD6"/>
<circle cx="300.248" cy="111.023" r="3.12791" stroke="#B1BBD6"/>
<circle cx="328.811" cy="111.023" r="3.12791" stroke="#B1BBD6"/>
<circle cx="357.372" cy="111.023" r="3.12791" stroke="#B1BBD6"/>
<circle cx="14.6279" cy="135.279" r="3.12791" stroke="#B1BBD6"/>
<circle cx="43.1904" cy="135.279" r="3.12791" stroke="#B1BBD6"/>
<circle cx="71.7519" cy="135.279" r="3.12791" stroke="#B1BBD6"/>
<circle cx="100.314" cy="135.279" r="3.12791" stroke="#B1BBD6"/>
<circle cx="128.876" cy="135.279" r="3.12791" stroke="#B1BBD6"/>
<circle cx="157.438" cy="135.279" r="3.12791" stroke="#B1BBD6"/>
<circle cx="186" cy="135.279" r="3.12791" fill="white" stroke="#2D60E3"/>
<circle cx="214.562" cy="135.279" r="3.12791" stroke="#B1BBD6"/>
<circle cx="243.124" cy="135.279" r="3.12791" stroke="#B1BBD6"/>
<circle cx="271.686" cy="135.279" r="3.12791" stroke="#B1BBD6"/>
<circle cx="300.248" cy="135.279" r="3.12791" stroke="#B1BBD6"/>
<circle cx="328.811" cy="135.279" r="3.12791" stroke="#B1BBD6"/>
<circle cx="357.372" cy="135.279" r="3.12791" stroke="#B1BBD6"/>
<circle cx="14.6279" cy="159.535" r="3.12791" stroke="#B1BBD6"/>
<circle cx="43.1904" cy="159.535" r="3.12791" stroke="#B1BBD6"/>
<circle cx="71.7519" cy="159.535" r="3.12791" stroke="#B1BBD6"/>
<circle cx="100.314" cy="159.535" r="3.12791" stroke="#B1BBD6"/>
<circle cx="128.876" cy="159.535" r="3.12791" stroke="#B1BBD6"/>
<circle cx="157.438" cy="159.535" r="3.12791" stroke="#B1BBD6"/>
<circle cx="186" cy="159.535" r="3.12791" fill="white" stroke="#2D60E3"/>
<circle cx="214.562" cy="159.535" r="3.12791" stroke="#B1BBD6"/>
<circle cx="243.124" cy="159.535" r="3.12791" stroke="#B1BBD6"/>
<circle cx="271.686" cy="159.535" r="3.12791" stroke="#B1BBD6"/>
<circle cx="300.248" cy="159.535" r="3.12791" stroke="#B1BBD6"/>
<circle cx="328.811" cy="159.535" r="3.12791" stroke="#B1BBD6"/>
<circle cx="357.372" cy="159.535" r="3.12791" stroke="#B1BBD6"/>
<circle cx="186" cy="87" r="33" fill="white"/>
<path d="M202.993 103.401V99.1769C202.993 96.9365 202.103 94.7878 200.519 93.2036C198.935 91.6194 196.786 90.7294 194.546 90.7294H177.651C175.41 90.7294 173.262 91.6194 171.677 93.2036C170.093 94.7878 169.203 96.9365 169.203 99.1769V103.401" stroke="#2D60E3" stroke-linecap="round" stroke-linejoin="round"/>
<path d="M186.098 84.3955C190.763 84.3955 194.545 80.6135 194.545 75.948C194.545 71.2826 190.763 67.5005 186.098 67.5005C181.432 67.5005 177.65 71.2826 177.65 75.948C177.65 80.6135 181.432 84.3955 186.098 84.3955Z" stroke="#2D60E3" stroke-linecap="round" stroke-linejoin="round"/>
<path d="M187.32 100.683L187.433 101.028H192.068L188.612 103.54L188.318 103.753L188.431 104.099L189.75 108.162L186.294 105.651L186 105.438L185.706 105.651L182.249 108.162L183.569 104.099L183.682 103.753L183.388 103.54L179.932 101.028H184.567L184.68 100.683L186 96.6182L187.32 100.683Z" stroke="#2D60E3"/>
</g>
<defs>
<clipPath id="clip0_269_5473">
<rect y="0.162109" width="372" height="174" rx="16" fill="white"/>
</clipPath>
</defs>
</svg>
