<svg width="372" height="175" viewBox="0 0 372 175" fill="none" xmlns="http://www.w3.org/2000/svg">
<g clip-path="url(#clip0_1456_27148)">
<path d="M208.5 56.5294V176.5H162.5V56.5294H208.5Z" stroke="#2D60E3"/>
<path d="M163 67H177" stroke="#2D60E3" stroke-linecap="round"/>
<path d="M163 79H177" stroke="#2D60E3" stroke-linecap="round"/>
<path d="M163 91H177" stroke="#2D60E3" stroke-linecap="round"/>
<path d="M157.5 91.5769V176.5H107.5V91.5769H157.5Z" stroke="#B1BBD6"/>
<path d="M213.5 91.5769V176.5H263.5V91.5769H213.5Z" stroke="#B1BBD6"/>
<path d="M102.5 127.755V176.5H53.5V127.755H102.5Z" stroke="#B1BBD6"/>
<path d="M78.0088 43V43.5H78.5V43.9854H79V45.9561H78.5V47.9268H79V49.8975H78.5V51.8672H79V53.8379H78.5V55.8086H79V57.7793H78.5V59.75H79V61.7207H78.5V63.6914H79V65.6621H78.5V67.6328H79V69.6025H78.5V71.5732H79V73.5439H78.5V75.5146H79V77.4854H78.5V79.4561H79V81.4268H78.5V83.3975H79V85.3672H78.5V87.3379H79V89.3086H78.5V91.2793H79V93.25H78.5V95.2207H79V97.1914H78.5V99.1621H79V101.133H78.5V103.103H79V105.073H78.5V107.044H79V109.015H78.5V110.985H79V112.956H78.5V114.927H79V116.897H78.5V118.867H79V120.838H78.5V122.809H79V124.779H78.5V126.75H79V128.721H78.5V130.691H79V132.662H78.5V134.633H79V136.603H78.5V138.573H79V140.544H78.5V142.515H79V144.485H78.5V146.456H79V148.427H78.5V150.397H79V152.367H78.5V154.338H79V156.309H78.5V158.279H79V160.25H78.5V162.221H79V164.191H78.5V166.162H79V168.133H78.5V170.103H79V172.073H78.5V174.044H79V176.015H78.5V176.5H78.0098V177H76.0283V176.5H74.0459V177H72.0645V176.5H70.083V177H68.1016V176.5H66.1201V177H64.1387V176.5H62.1572V177H60.1758V176.5H58.1943V177H56.2129V176.5H54.2314V177H52.25V176.5H50.2686V177H48.2871V176.5H46.3057V177H44.3242V176.5H42.3428V177H40.3613V176.5H38.3799V177H36.3984V176.5H34.417V177H32.4355V176.5H30.4541V177H28.4727V176.5H26.4912V177H24.5098V176.5H22.5273V177H20.5459V176.5H18.5645V177H16.583V176.5H14.6016V177H12.6201V176.5H10.6387V177H8.65723V176.5H6.67578V177H4.69434V176.5H2.71289V177H0.731445V176.5H-1.25V177H-3.23145V176.5H-5.21289V177H-7.19434V176.5H-9.17578V177H-11.1572V176.5H-13.1387V177H-15.1201V176.5H-17.1016V177H-19.083V176.5H-21.0645V177H-23.0459V176.5H-25.0273V177H-27.0088V176.5H-27.5V176.015H-28V174.044H-27.5V172.073H-28V170.103H-27.5V168.133H-28V166.162H-27.5V164.191H-28V162.221H-27.5V160.25H-28V158.279H-27.5V156.309H-28V154.338H-27.5V152.367H-28V150.397H-27.5V148.427H-28V146.456H-27.5V144.485H-28V142.515H-27.5V140.544H-28V138.573H-27.5V136.603H-28V134.633H-27.5V132.662H-28V130.691H-27.5V128.721H-28V126.75H-27.5V124.779H-28V122.809H-27.5V120.838H-28V118.867H-27.5V116.897H-28V114.927H-27.5V112.956H-28V110.985H-27.5V109.015H-28V107.044H-27.5V105.073H-28V103.103H-27.5V101.133H-28V99.1621H-27.5V97.1914H-28V95.2207H-27.5V93.25H-28V91.2793H-27.5V89.3086H-28V87.3379H-27.5V85.3672H-28V83.3975H-27.5V81.4268H-28V79.4561H-27.5V77.4854H-28V75.5146H-27.5V73.5439H-28V71.5732H-27.5V69.6025H-28V67.6328H-27.5V65.6621H-28V63.6914H-27.5V61.7207H-28V59.75H-27.5V57.7793H-28V55.8086H-27.5V53.8379H-28V51.8672H-27.5V49.8975H-28V47.9268H-27.5V45.9561H-28V43.9854H-27.5V43.5H-27.0098V43H-25.0283V43.5H-23.0459V43H-21.0645V43.5H-19.083V43H-17.1016V43.5H-15.1201V43H-13.1387V43.5H-11.1572V43H-9.17578V43.5H-7.19434V43H-5.21289V43.5H-3.23145V43H-1.25V43.5H0.731445V43H2.71289V43.5H4.69434V43H6.67578V43.5H8.65723V43H10.6387V43.5H12.6201V43H14.6016V43.5H16.583V43H18.5645V43.5H20.5459V43H22.5273V43.5H24.5088V43H26.4912V43.5H28.4727V43H30.4541V43.5H32.4355V43H34.417V43.5H36.3984V43H38.3799V43.5H40.3613V43H42.3428V43.5H44.3242V43H46.3057V43.5H48.2871V43H50.2686V43.5H52.25V43H54.2314V43.5H56.2129V43H58.1943V43.5H60.1758V43H62.1572V43.5H64.1387V43H66.1201V43.5H68.1016V43H70.083V43.5H72.0645V43H74.0459V43.5H76.0273V43H78.0088Z" stroke="#B1BBD6" stroke-dasharray="2 2"/>
<path d="M53.0234 91V91.5H53.5V91.9775H54V93.9316H53.5V95.8867H54V97.8408H53.5V99.7959H54V101.75H53.5V103.704H54V105.659H53.5V107.613H54V109.568H53.5V111.522H54V113.478H53.5V115.432H54V117.387H53.5V119.341H54V121.296H53.5V123.25H54V125.204H53.5V127.159H54V129.113H53.5V131.068H54V133.022H53.5V134.978H54V136.932H53.5V138.887H54V140.841H53.5V142.796H54V144.75H53.5V146.704H54V148.659H53.5V150.613H54V152.568H53.5V154.522H54V156.478H53.5V158.432H54V160.387H53.5V162.341H54V164.296H53.5V166.25H54V168.204H53.5V170.159H54V172.113H53.5V174.068H54V176.022H53.5V176.5H53.0234V177H51.0713V176.5H49.1191V177H47.167V176.5H45.2139V177H43.2617V176.5H41.3096V177H39.3574V176.5H37.4043V177H35.4521V176.5H33.5V177H31.5479V176.5H29.5957V177H27.6426V176.5H25.6904V177H23.7383V176.5H21.7861V177H19.833V176.5H17.8809V177H15.9287V176.5H13.9766V177H12.0234V176.5H10.0713V177H8.11914V176.5H6.16699V177H4.21387V176.5H2.26172V177H0.30957V176.5H-1.64258V177H-3.5957V176.5H-5.54785V177H-7.5V176.5H-9.45215V177H-11.4043V176.5H-13.3574V177H-15.3096V176.5H-17.2617V177H-19.2139V176.5H-21.167V177H-23.1191V176.5H-25.0713V177H-27.0234V176.5H-27.5V176.022H-28V174.068H-27.5V172.113H-28V170.159H-27.5V168.204H-28V166.25H-27.5V164.296H-28V162.341H-27.5V160.387H-28V158.432H-27.5V156.478H-28V154.522H-27.5V152.568H-28V150.613H-27.5V148.659H-28V146.704H-27.5V144.75H-28V142.796H-27.5V140.841H-28V138.887H-27.5V136.932H-28V134.978H-27.5V133.022H-28V131.068H-27.5V129.113H-28V127.159H-27.5V125.204H-28V123.25H-27.5V121.296H-28V119.341H-27.5V117.387H-28V115.432H-27.5V113.478H-28V111.522H-27.5V109.568H-28V107.613H-27.5V105.659H-28V103.704H-27.5V101.75H-28V99.7959H-27.5V97.8408H-28V95.8867H-27.5V93.9316H-28V91.9775H-27.5V91.5H-27.0234V91H-25.0713V91.5H-23.1191V91H-21.167V91.5H-19.2139V91H-17.2617V91.5H-15.3096V91H-13.3574V91.5H-11.4043V91H-9.45215V91.5H-7.5V91H-5.54785V91.5H-3.5957V91H-1.64258V91.5H0.30957V91H2.26172V91.5H4.21387V91H6.16699V91.5H8.11914V91H10.0713V91.5H12.0234V91H13.9766V91.5H15.9287V91H17.8809V91.5H19.833V91H21.7861V91.5H23.7383V91H25.6904V91.5H27.6426V91H29.5957V91.5H31.5479V91H33.5V91.5H35.4521V91H37.4043V91.5H39.3574V91H41.3096V91.5H43.2617V91H45.2139V91.5H47.167V91H49.1191V91.5H51.0713V91H53.0234Z" stroke="#B1BBD6" stroke-dasharray="2 2"/>
<path d="M343.009 57V57.5H343.5V58H344V60H343.5V62H344V64H343.5V66H344V68H343.5V70H344V72H343.5V74H344V76H343.5V78H344V80H343.5V82H344V84H343.5V86H344V88H343.5V90H344V92H343.5V94H344V96H343.5V98H344V100H343.5V102H344V104H343.5V106H344V108H343.5V110H344V112H343.5V114H344V116H343.5V118H344V120H343.5V122H344V124H343.5V126H344V128H343.5V130H344V132H343.5V134H344V136H343.5V138H344V140H343.5V142H344V144H343.5V146H344V148H343.5V150H344V152H343.5V154H344V156H343.5V158H344V160H343.5V162H344V164H343.5V166H344V168H343.5V170H344V172H343.5V174H344V176H343.5V176.5H343.01V177H341.028V176.5H339.046V177H337.064V176.5H335.083V177H333.102V176.5H331.12V177H329.139V176.5H327.157V177H325.176V176.5H323.194V177H321.213V176.5H319.231V177H317.25V176.5H315.269V177H313.287V176.5H311.306V177H309.324V176.5H307.343V177H305.361V176.5H303.38V177H301.398V176.5H299.417V177H297.436V176.5H295.454V177H293.473V176.5H291.491V177H289.51V176.5H287.527V177H285.546V176.5H283.564V177H281.583V176.5H279.602V177H277.62V176.5H275.639V177H273.657V176.5H271.676V177H269.694V176.5H267.713V177H265.731V176.5H263.75V177H261.769V176.5H259.787V177H257.806V176.5H255.824V177H253.843V176.5H251.861V177H249.88V176.5H247.898V177H245.917V176.5H243.936V177H241.954V176.5H239.973V177H237.991V176.5H237.5V176H237V174H237.5V172H237V170H237.5V168H237V166H237.5V164H237V162H237.5V160H237V158H237.5V156H237V154H237.5V152H237V150H237.5V148H237V146H237.5V144H237V142H237.5V140H237V138H237.5V136H237V134H237.5V132H237V130H237.5V128H237V126H237.5V124H237V122H237.5V120H237V118H237.5V116H237V114H237.5V112H237V110H237.5V108H237V106H237.5V104H237V102H237.5V100H237V98H237.5V96H237V94H237.5V92H237V90H237.5V88H237V86H237.5V84H237V82H237.5V80H237V78H237.5V76H237V74H237.5V72H237V70H237.5V68H237V66H237.5V64H237V62H237.5V60H237V58H237.5V57.5H237.99V57H239.972V57.5H241.954V57H243.936V57.5H245.917V57H247.898V57.5H249.88V57H251.861V57.5H253.843V57H255.824V57.5H257.806V57H259.787V57.5H261.769V57H263.75V57.5H265.731V57H267.713V57.5H269.694V57H271.676V57.5H273.657V57H275.639V57.5H277.62V57H279.602V57.5H281.583V57H283.564V57.5H285.546V57H287.527V57.5H289.509V57H291.491V57.5H293.473V57H295.454V57.5H297.436V57H299.417V57.5H301.398V57H303.38V57.5H305.361V57H307.343V57.5H309.324V57H311.306V57.5H313.287V57H315.269V57.5H317.25V57H319.231V57.5H321.213V57H323.194V57.5H325.176V57H327.157V57.5H329.139V57H331.12V57.5H333.102V57H335.083V57.5H337.064V57H339.046V57.5H341.027V57H343.009Z" stroke="#B1BBD6" stroke-dasharray="2 2"/>
<path d="M343.02 -5V-4.5H343.5V-4.01074H344V-2.03223H343.5V-0.0546875H344V1.92383H343.5V3.90234H344V5.88086H343.5V7.8584H344V9.83691H343.5V11.8154H344V13.7939H343.5V15.7715H344V17.75H343.5V19.7285H344V21.7061H343.5V23.6846H344V25.6631H343.5V27.6416H344V29.6191H343.5V31.5977H344V33.5762H343.5V35.5547H344V37.5322H343.5V39.5107H344V41.4893H343.5V43.4678H344V45.4453H343.5V47.4238H344V49.4023H343.5V51.3799H344V53.3584H343.5V55.3369H344V57.3154H343.5V59.293H344V61.2715H343.5V63.25H344V65.2285H343.5V67.2061H344V69.1846H343.5V71.1631H344V73.1416H343.5V75.1191H344V77.0977H343.5V79.0762H344V81.0547H343.5V83.0322H344V85.0107H343.5V86.9893H344V88.9678H343.5V90.9453H344V92.9238H343.5V94.9023H344V96.8809H343.5V98.8584H344V100.837H343.5V102.815H344V104.794H343.5V106.771H344V108.75H343.5V110.729H344V112.706H343.5V114.685H344V116.663H343.5V118.642H344V120.619H343.5V122.598H344V124.576H343.5V126.555H344V128.532H343.5V130.511H344V132.489H343.5V134.468H344V136.445H343.5V138.424H344V140.402H343.5V142.381H344V144.358H343.5V146.337H344V148.315H343.5V150.294H344V152.271H343.5V154.25H344V156.229H343.5V158.206H344V160.185H343.5V162.163H344V164.142H343.5V166.119H344V168.098H343.5V170.076H344V172.055H343.5V174.032H344V176.011H343.5V176.5H343.02V177H341.058V176.5H339.096V177H337.135V176.5H335.173V177H333.212V176.5H331.25V177H329.288V176.5H327.327V177H325.365V176.5H323.404V177H321.442V176.5H319.48V177H317.52V176.5H315.558V177H313.596V176.5H311.635V177H309.673V176.5H307.712V177H305.75V176.5H303.788V177H301.827V176.5H299.865V177H297.904V176.5H295.942V177H293.98V176.5H293.5V176.011H293V174.032H293.5V172.055H293V170.076H293.5V168.098H293V166.119H293.5V164.142H293V162.163H293.5V160.185H293V158.206H293.5V156.229H293V154.25H293.5V152.271H293V150.294H293.5V148.315H293V146.337H293.5V144.358H293V142.381H293.5V140.402H293V138.424H293.5V136.445H293V134.468H293.5V132.489H293V130.511H293.5V128.532H293V126.555H293.5V124.576H293V122.598H293.5V120.62H293V118.642H293.5V116.663H293V114.685H293.5V112.707H293V110.729H293.5V108.75H293V106.771H293.5V104.794H293V102.815H293.5V100.837H293V98.8584H293.5V96.8809H293V94.9023H293.5V92.9238H293V90.9453H293.5V88.9678H293V86.9893H293.5V85.0107H293V83.0322H293.5V81.0547H293V79.0762H293.5V77.0977H293V75.1191H293.5V73.1416H293V71.1631H293.5V69.1846H293V67.2061H293.5V65.2285H293V63.25H293.5V61.2715H293V59.2939H293.5V57.3154H293V55.3369H293.5V53.3584H293V51.3809H293.5V49.4023H293V47.4238H293.5V45.4453H293V43.4678H293.5V41.4893H293V39.5107H293.5V37.5322H293V35.5547H293.5V33.5762H293V31.5977H293.5V29.6191H293V27.6416H293.5V25.6631H293V23.6846H293.5V21.7061H293V19.7285H293.5V17.75H293V15.7715H293.5V13.7939H293V11.8154H293.5V9.83691H293V7.8584H293.5V5.88086H293V3.90234H293.5V1.92383H293V-0.0546875H293.5V-2.03223H293V-4.01074H293.5V-4.5H293.98V-5H295.942V-4.5H297.904V-5H299.865V-4.5H301.827V-5H303.788V-4.5H305.75V-5H307.712V-4.5H309.673V-5H311.635V-4.5H313.596V-5H315.558V-4.5H317.52V-5H319.48V-4.5H321.442V-5H323.404V-4.5H325.365V-5H327.327V-4.5H329.288V-5H331.25V-4.5H333.212V-5H335.173V-4.5H337.135V-5H339.096V-4.5H341.058V-5H343.02Z" stroke="#B1BBD6" stroke-dasharray="2 2"/>
<path d="M268.5 127.755V176.5H317.5V127.755H268.5Z" stroke="#B1BBD6"/>
<path d="M180 10H221L201 22.5L221 35H180V10Z" stroke="#2D60E3"/>
<path d="M180 35V56.5" stroke="#2D60E3" stroke-linecap="round"/>
</g>
<defs>
<clipPath id="clip0_1456_27148">
<rect y="0.162109" width="372" height="174" rx="16" fill="white"/>
</clipPath>
</defs>
</svg>
