<svg width="372" height="175" viewBox="0 0 372 175" fill="none" xmlns="http://www.w3.org/2000/svg">
<rect x="28" y="67" width="41" height="41" rx="8" stroke="#B1BBD6" stroke-linecap="round" stroke-dasharray="2 2"/>
<rect x="74" y="67" width="41" height="41" rx="8" stroke="#B1BBD6" stroke-linecap="round" stroke-dasharray="2 2"/>
<rect x="120" y="67" width="41" height="41" rx="8" stroke="#B1BBD6" stroke-linecap="round" stroke-dasharray="2 2"/>
<rect x="217" y="67" width="36" height="36" rx="8" stroke="#B1BBD6" stroke-linecap="round" stroke-dasharray="2 2"/>
<rect x="258" y="67" width="36" height="36" rx="8" stroke="#B1BBD6" stroke-linecap="round" stroke-dasharray="2 2"/>
<rect x="304" y="67" width="41" height="41" rx="8" stroke="#B1BBD6" stroke-linecap="round" stroke-dasharray="2 2"/>
<rect x="28" y="21" width="41" height="41" rx="8" stroke="#2D60E3" stroke-linecap="round" stroke-dasharray="2 2"/>
<rect x="33" y="26" width="31" height="31" rx="8" stroke="#B1BBD6" stroke-linecap="round" stroke-dasharray="2 2"/>
<rect x="74" y="21" width="41" height="41" rx="8" stroke="#B1BBD6" stroke-linecap="round" stroke-dasharray="2 2"/>
<rect x="120" y="21" width="41" height="41" rx="8" stroke="#B1BBD6" stroke-linecap="round" stroke-dasharray="2 2"/>
<rect x="166" y="21" width="41" height="41" rx="8" stroke="#B1BBD6" stroke-linecap="round" stroke-dasharray="2 2"/>
<rect x="212" y="21" width="87" height="87" rx="8" stroke="#2D60E3" stroke-linecap="round" stroke-dasharray="2 2"/>
<rect x="217" y="26" width="77" height="36" rx="8" stroke="#B1BBD6" stroke-linecap="round" stroke-dasharray="2 2"/>
<rect x="304" y="21" width="41" height="41" rx="8" stroke="#B1BBD6" stroke-linecap="round" stroke-dasharray="2 2"/>
<rect x="28" y="113" width="87" height="41" rx="8" stroke="#2D60E3" stroke-linecap="round" stroke-dasharray="2 2"/>
<rect x="33" y="118" width="77" height="17" rx="8" stroke="#B1BBD6" stroke-linecap="round" stroke-dasharray="2 2"/>
<rect x="120" y="113" width="41" height="41" rx="8" stroke="#B1BBD6" stroke-linecap="round" stroke-dasharray="2 2"/>
<rect x="166" y="113" width="41" height="41" rx="8" stroke="#B1BBD6" stroke-linecap="round" stroke-dasharray="2 2"/>
<rect x="212" y="113" width="41" height="41" rx="8" stroke="#B1BBD6" stroke-linecap="round" stroke-dasharray="2 2"/>
<rect x="258" y="113" width="41" height="41" rx="8" stroke="#B1BBD6" stroke-linecap="round" stroke-dasharray="2 2"/>
<rect x="304" y="113" width="41" height="41" rx="8" stroke="#2D60E3" stroke-linecap="round" stroke-dasharray="2 2"/>
<rect x="309" y="118" width="31" height="31" rx="15.5" stroke="#B1BBD6" stroke-linecap="round" stroke-dasharray="2 2"/>
<path d="M201.38 76.258L183.194 94.4435L175.259 86.508" stroke="#2D60E3" stroke-linecap="round"/>
<rect x="166" y="67" width="41" height="41" rx="8" stroke="#B1BBD6"/>
</svg>
