<svg width="372" height="175" viewBox="0 0 372 175" fill="none" xmlns="http://www.w3.org/2000/svg">
<g clip-path="url(#clip0_269_5468)">
<path d="M103 -19.5H180C192.979 -19.5 203.5 -8.97869 203.5 4V97C203.5 101.142 200.142 104.5 196 104.5H103C90.0213 104.5 79.5 93.9787 79.5 81V4C79.5 -8.97869 90.0213 -19.5 103 -19.5Z" stroke="#B1BBD6"/>
<path d="M12.0752 -20V-19.5H14C14.6212 -19.5 15.2368 -19.476 15.8457 -19.4287L15.8838 -19.9268C17.1544 -19.8281 18.3971 -19.6297 19.6045 -19.3408L19.4883 -18.8555C20.696 -18.5665 21.8679 -18.1842 22.9951 -17.7168L23.1855 -18.1777C24.3529 -17.6937 25.4742 -17.1212 26.54 -16.4668L26.2793 -16.04C27.3308 -15.3943 28.3281 -14.6683 29.2617 -13.8701L29.5859 -14.25C30.5416 -13.4331 31.4321 -12.5425 32.249 -11.5869L31.8701 -11.2617C32.6683 -10.3281 33.3943 -9.33083 34.04 -8.2793L34.4658 -8.54102C35.1203 -7.47518 35.6926 -6.35389 36.1768 -5.18652L35.7168 -4.99512C36.1842 -3.86787 36.5665 -2.69601 36.8555 -1.48828L37.3398 -1.60547C37.6288 -0.398009 37.8271 0.844554 37.9258 2.11523H37.9268L37.4287 2.1543C37.476 2.76322 37.5 3.37875 37.5 4V5.9248H38V9.77539H37.5V13.625H38V17.4746H37.5V21.3252H38V25.1748H37.5V29.0254H38V32.875H37.5V36.7246H38V40.5752H37.5V44.4248H38V48.2754H37.5V52.125H38V55.9746H37.5V59.8252H38V63.6748H37.5V67.5254H38V71.375H37.5V75.2246H38V79.0752H37.5V81C37.5 81.6212 37.476 82.2368 37.4287 82.8457L37.9258 82.8838C37.8271 84.1545 37.6287 85.397 37.3398 86.6045L36.8555 86.4883C36.5665 87.696 36.1842 88.8679 35.7168 89.9951L36.1768 90.1855C35.6927 91.353 35.1203 92.4742 34.4658 93.54L34.04 93.2793C33.3943 94.3308 32.6683 95.3281 31.8701 96.2617L32.249 96.5859C31.4321 97.5416 30.5416 98.4321 29.5859 99.249L29.2617 98.8701C28.3282 99.6681 27.3316 100.394 26.2803 101.04L26.54 101.466C25.4742 102.12 24.353 102.693 23.1855 103.177L22.9951 102.717C21.8679 103.184 20.696 103.567 19.4883 103.855L19.6045 104.34C18.397 104.629 17.1545 104.827 15.8838 104.926L15.8457 104.429C15.2368 104.476 14.6212 104.5 14 104.5H12.0752V105H8.22461V104.5H4.375V105H0.525391V104.5H-3.3252V105H-7.1748V104.5H-11.0254V105H-14.875V104.5H-18.7246V105H-22.5752V104.5H-26.4248V105H-30.2754V104.5H-34.125V105H-37.9746V104.5H-41.8252V105H-45.6748V104.5H-49.5254V105H-53.375V104.5H-57.2246V105H-61.0752V104.5H-63C-63.6212 104.5 -64.2368 104.476 -64.8457 104.429L-64.8848 104.926C-66.1554 104.827 -67.398 104.629 -68.6055 104.34L-68.4883 103.855C-69.696 103.567 -70.8679 103.184 -71.9951 102.717L-72.1865 103.177C-73.3539 102.693 -74.4752 102.12 -75.541 101.466L-75.2803 101.04C-76.3316 100.394 -77.3282 99.6681 -78.2617 98.8701L-78.5869 99.249C-79.5425 98.4321 -80.4331 97.5416 -81.25 96.5859L-80.8701 96.2617C-81.6683 95.3281 -82.3943 94.3308 -83.04 93.2793L-83.4668 93.54C-84.1212 92.4742 -84.6937 91.3529 -85.1777 90.1855L-84.7168 89.9951C-85.1842 88.8679 -85.5665 87.696 -85.8555 86.4883L-86.3408 86.6045C-86.6297 85.3971 -86.8281 84.1544 -86.9268 82.8838L-86.4287 82.8457C-86.476 82.2368 -86.5 81.6212 -86.5 81V79.0752H-87V75.2246H-86.5V71.375H-87V67.5254H-86.5V63.6748H-87V59.8252H-86.5V55.9746H-87V52.125H-86.5V48.2754H-87V44.4248H-86.5V40.5752H-87V36.7246H-86.5V32.875H-87V29.0254H-86.5V25.1748H-87V21.3252H-86.5V17.4746H-87V13.625H-86.5V9.77539H-87V5.9248H-86.5V4C-86.5 3.37875 -86.476 2.76322 -86.4287 2.1543L-86.9268 2.11523C-86.8281 0.844606 -86.6297 -0.398054 -86.3408 -1.60547L-85.8555 -1.48828C-85.5665 -2.69601 -85.1842 -3.86787 -84.7168 -4.99512L-85.1777 -5.18652C-84.6937 -6.35385 -84.1213 -7.4752 -83.4668 -8.54102L-83.04 -8.2793C-82.3943 -9.33083 -81.6683 -10.3281 -80.8701 -11.2617L-81.25 -11.5869C-80.4331 -12.5425 -79.5425 -13.4331 -78.5869 -14.25L-78.2617 -13.8701C-77.3281 -14.6683 -76.3308 -15.3943 -75.2793 -16.04L-75.541 -16.4668C-74.4752 -17.1213 -73.3539 -17.6937 -72.1865 -18.1777L-71.9951 -17.7168C-70.8679 -18.1842 -69.696 -18.5665 -68.4883 -18.8555L-68.6055 -19.3408C-67.3981 -19.6297 -66.1554 -19.8281 -64.8848 -19.9268L-64.8457 -19.4287C-64.2368 -19.476 -63.6212 -19.5 -63 -19.5H-61.0752V-20H-57.2246V-19.5H-53.375V-20H-49.5254V-19.5H-45.6748V-20H-41.8252V-19.5H-37.9746V-20H-34.125V-19.5H-30.2754V-20H-26.4248V-19.5H-22.5752V-20H-18.7246V-19.5H-14.875V-20H-11.0254V-19.5H-7.1748V-20H-3.3252V-19.5H0.525391V-20H4.375V-19.5H8.22461V-20H12.0752Z" stroke="#B1BBD6" stroke-dasharray="4 4"/>
<path d="M354.925 155V154.5H353C352.379 154.5 351.763 154.476 351.154 154.429L351.116 154.927C349.846 154.828 348.603 154.63 347.396 154.341L347.512 153.855C346.304 153.567 345.132 153.184 344.005 152.717L343.814 153.178C342.647 152.694 341.526 152.121 340.46 151.467L340.721 151.04C339.669 150.394 338.672 149.668 337.738 148.87L337.414 149.25C336.458 148.433 335.568 147.542 334.751 146.587L335.13 146.262C334.332 145.328 333.606 144.331 332.96 143.279L332.534 143.541C331.88 142.475 331.307 141.354 330.823 140.187L331.283 139.995C330.816 138.868 330.433 137.696 330.145 136.488L329.66 136.605C329.371 135.398 329.173 134.155 329.074 132.885H329.073L329.571 132.846C329.524 132.237 329.5 131.621 329.5 131V129.075H329V125.225H329.5V121.375H329V117.525H329.5V113.675H329V109.825H329.5V105.975H329V102.125H329.5V98.2754H329V94.4248H329.5V90.5752H329V86.7246H329.5V82.875H329V79.0254H329.5V75.1748H329V71.3252H329.5V67.4746H329V63.625H329.5V59.7754H329V55.9248H329.5V54C329.5 53.3788 329.524 52.7632 329.571 52.1543L329.074 52.1162C329.173 50.8455 329.371 49.603 329.66 48.3955L330.145 48.5117C330.433 47.304 330.816 46.1321 331.283 45.0049L330.823 44.8145C331.307 43.647 331.88 42.5258 332.534 41.46L332.96 41.7207C333.606 40.6692 334.332 39.6719 335.13 38.7383L334.751 38.4141C335.568 37.4584 336.458 36.5679 337.414 35.751L337.738 36.1299C338.672 35.3319 339.668 34.6056 340.72 33.96L340.46 33.5342C341.526 32.8797 342.647 32.3073 343.814 31.8232L344.005 32.2832C345.132 31.8158 346.304 31.4335 347.512 31.1445L347.396 30.6602C348.603 30.3713 349.846 30.1729 351.116 30.0742L351.154 30.5713C351.763 30.524 352.379 30.5 353 30.5H354.925V30H358.775V30.5H362.625V30H366.475V30.5H370.325V30H374.175V30.5H378.025V30H381.875V30.5H385.725V30H389.575V30.5H393.425V30H397.275V30.5H401.125V30H404.975V30.5H408.825V30H412.675V30.5H416.525V30H420.375V30.5H424.225V30H428.075V30.5H430C430.621 30.5 431.237 30.524 431.846 30.5713L431.885 30.0742C433.155 30.1729 434.398 30.3712 435.605 30.6602L435.488 31.1445C436.696 31.4335 437.868 31.8158 438.995 32.2832L439.187 31.8232C440.354 32.3074 441.475 32.8797 442.541 33.5342L442.28 33.96C443.332 34.6056 444.328 35.3319 445.262 36.1299L445.587 35.751C446.542 36.5679 447.433 37.4584 448.25 38.4141L447.87 38.7383C448.668 39.6719 449.394 40.6692 450.04 41.7207L450.467 41.46C451.121 42.5258 451.694 43.6471 452.178 44.8145L451.717 45.0049C452.184 46.1321 452.567 47.304 452.855 48.5117L453.341 48.3955C453.63 49.6029 453.828 50.8456 453.927 52.1162L453.429 52.1543C453.476 52.7632 453.5 53.3788 453.5 54V55.9248H454V59.7754H453.5V63.625H454V67.4746H453.5V71.3252H454V75.1748H453.5V79.0254H454V82.875H453.5V86.7246H454V90.5752H453.5V94.4248H454V98.2754H453.5V102.125H454V105.975H453.5V109.825H454V113.675H453.5V117.525H454V121.375H453.5V125.225H454V129.075H453.5V131C453.5 131.621 453.476 132.237 453.429 132.846L453.927 132.885C453.828 134.155 453.63 135.398 453.341 136.605L452.855 136.488C452.567 137.696 452.184 138.868 451.717 139.995L452.178 140.187C451.694 141.354 451.121 142.475 450.467 143.541L450.04 143.279C449.394 144.331 448.668 145.328 447.87 146.262L448.25 146.587C447.433 147.542 446.542 148.433 445.587 149.25L445.262 148.87C444.328 149.668 443.331 150.394 442.279 151.04L442.541 151.467C441.475 152.121 440.354 152.694 439.187 153.178L438.995 152.717C437.868 153.184 436.696 153.567 435.488 153.855L435.605 154.341C434.398 154.63 433.155 154.828 431.885 154.927L431.846 154.429C431.237 154.476 430.621 154.5 430 154.5H428.075V155H424.225V154.5H420.375V155H416.525V154.5H412.675V155H408.825V154.5H404.975V155H401.125V154.5H397.275V155H393.425V154.5H389.575V155H385.725V154.5H381.875V155H378.025V154.5H374.175V155H370.325V154.5H366.475V155H362.625V154.5H358.775V155H354.925Z" stroke="#B1BBD6" stroke-dasharray="4 4"/>
<path d="M36.0752 79V79.5H38C38.6212 79.5 39.2368 79.524 39.8457 79.5713L39.8838 79.0732C41.1544 79.1719 42.3971 79.3703 43.6045 79.6592L43.4883 80.1445C44.696 80.4335 45.8679 80.8158 46.9951 81.2832L47.1855 80.8223C48.3529 81.3063 49.4742 81.8788 50.54 82.5332L50.2793 82.96C51.3308 83.6057 52.3281 84.3317 53.2617 85.1299L53.5859 84.75C54.5416 85.5669 55.4321 86.4575 56.249 87.4131L55.8701 87.7383C56.6683 88.6719 57.3943 89.6692 58.04 90.7207L58.4658 90.459C59.1203 91.5248 59.6926 92.6461 60.1768 93.8135L59.7168 94.0049C60.1842 95.1321 60.5665 96.304 60.8555 97.5117L61.3398 97.3945C61.6288 98.602 61.8271 99.8446 61.9258 101.115H61.9268L61.4287 101.154C61.476 101.763 61.5 102.379 61.5 103V104.925H62V108.775H61.5V112.625H62V116.475H61.5V120.325H62V124.175H61.5V128.025H62V131.875H61.5V135.725H62V139.575H61.5V143.425H62V147.275H61.5V151.125H62V154.975H61.5V158.825H62V162.675H61.5V166.525H62V170.375H61.5V174.225H62V178.075H61.5V180C61.5 180.621 61.476 181.237 61.4287 181.846L61.9258 181.884C61.8271 183.154 61.6287 184.397 61.3398 185.604L60.8555 185.488C60.5665 186.696 60.1842 187.868 59.7168 188.995L60.1768 189.186C59.6927 190.353 59.1203 191.474 58.4658 192.54L58.04 192.279C57.3943 193.331 56.6683 194.328 55.8701 195.262L56.249 195.586C55.4321 196.542 54.5416 197.432 53.5859 198.249L53.2617 197.87C52.3282 198.668 51.3316 199.394 50.2803 200.04L50.54 200.466C49.4742 201.12 48.353 201.693 47.1855 202.177L46.9951 201.717C45.8679 202.184 44.696 202.567 43.4883 202.855L43.6045 203.34C42.397 203.629 41.1545 203.827 39.8838 203.926L39.8457 203.429C39.2368 203.476 38.6212 203.5 38 203.5H36.0752V204H32.2246V203.5H28.375V204H24.5254V203.5H20.6748V204H16.8252V203.5H12.9746V204H9.125V203.5H5.27539V204H1.4248V203.5H-2.4248V204H-6.27539V203.5H-10.125V204H-13.9746V203.5H-17.8252V204H-21.6748V203.5H-25.5254V204H-29.375V203.5H-33.2246V204H-37.0752V203.5H-39C-39.6212 203.5 -40.2368 203.476 -40.8457 203.429L-40.8848 203.926C-42.1554 203.827 -43.398 203.629 -44.6055 203.34L-44.4883 202.855C-45.696 202.567 -46.8679 202.184 -47.9951 201.717L-48.1865 202.177C-49.3539 201.693 -50.4752 201.12 -51.541 200.466L-51.2803 200.04C-52.3316 199.394 -53.3282 198.668 -54.2617 197.87L-54.5869 198.249C-55.5425 197.432 -56.4331 196.542 -57.25 195.586L-56.8701 195.262C-57.6683 194.328 -58.3943 193.331 -59.04 192.279L-59.4668 192.54C-60.1212 191.474 -60.6937 190.353 -61.1777 189.186L-60.7168 188.995C-61.1842 187.868 -61.5665 186.696 -61.8555 185.488L-62.3408 185.604C-62.6297 184.397 -62.8281 183.154 -62.9268 181.884L-62.4287 181.846C-62.476 181.237 -62.5 180.621 -62.5 180V178.075H-63V174.225H-62.5V170.375H-63V166.525H-62.5V162.675H-63V158.825H-62.5V154.975H-63V151.125H-62.5V147.275H-63V143.425H-62.5V139.575H-63V135.725H-62.5V131.875H-63V128.025H-62.5V124.175H-63V120.325H-62.5V116.475H-63V112.625H-62.5V108.775H-63V104.925H-62.5V103C-62.5 102.379 -62.476 101.763 -62.4287 101.154L-62.9268 101.115C-62.8281 99.8446 -62.6297 98.6019 -62.3408 97.3945L-61.8555 97.5117C-61.5665 96.304 -61.1842 95.1321 -60.7168 94.0049L-61.1777 93.8135C-60.6937 92.6461 -60.1213 91.5248 -59.4668 90.459L-59.04 90.7207C-58.3943 89.6692 -57.6683 88.6719 -56.8701 87.7383L-57.25 87.4131C-56.4331 86.4575 -55.5425 85.5669 -54.5869 84.75L-54.2617 85.1299C-53.3281 84.3317 -52.3308 83.6057 -51.2793 82.96L-51.541 82.5332C-50.4752 81.8787 -49.3539 81.3063 -48.1865 80.8223L-47.9951 81.2832C-46.8679 80.8158 -45.696 80.4335 -44.4883 80.1445L-44.6055 79.6592C-43.3981 79.3703 -42.1554 79.1719 -40.8848 79.0732L-40.8457 79.5713C-40.2368 79.524 -39.6212 79.5 -39 79.5H-37.0752V79H-33.2246V79.5H-29.375V79H-25.5254V79.5H-21.6748V79H-17.8252V79.5H-13.9746V79H-10.125V79.5H-6.27539V79H-2.4248V79.5H1.4248V79H5.27539V79.5H9.125V79H12.9746V79.5H16.8252V79H20.6748V79.5H24.5254V79H28.375V79.5H32.2246V79H36.0752Z" stroke="#B1BBD6" stroke-dasharray="4 4"/>
<path d="M330.925 56V55.5H329C328.379 55.5 327.763 55.476 327.154 55.4287L327.116 55.9268C325.846 55.8281 324.603 55.6297 323.396 55.3408L323.512 54.8555C322.304 54.5665 321.132 54.1842 320.005 53.7168L319.814 54.1777C318.647 53.6937 317.526 53.1212 316.46 52.4668L316.721 52.04C315.669 51.3943 314.672 50.6683 313.738 49.8701L313.414 50.25C312.458 49.4331 311.568 48.5425 310.751 47.5869L311.13 47.2617C310.332 46.3281 309.606 45.3308 308.96 44.2793L308.534 44.541C307.88 43.4752 307.307 42.3539 306.823 41.1865L307.283 40.9951C306.816 39.8679 306.433 38.696 306.145 37.4883L305.66 37.6055C305.371 36.398 305.173 35.1554 305.074 33.8848H305.073L305.571 33.8457C305.524 33.2368 305.5 32.6212 305.5 32V30.0752H305V26.2246H305.5V22.375H305V18.5254H305.5V14.6748H305V10.8252H305.5V6.97461H305V3.125H305.5V-0.724609H305V-4.5752H305.5V-8.4248H305V-12.2754H305.5V-16.125H305V-19.9746H305.5V-23.8252H305V-27.6748H305.5V-31.5254H305V-35.375H305.5V-39.2246H305V-43.0752H305.5V-45C305.5 -45.6212 305.524 -46.2368 305.571 -46.8457L305.074 -46.8838C305.173 -48.1545 305.371 -49.397 305.66 -50.6045L306.145 -50.4883C306.433 -51.696 306.816 -52.8679 307.283 -53.9951L306.823 -54.1855C307.307 -55.353 307.88 -56.4742 308.534 -57.54L308.96 -57.2793C309.606 -58.3308 310.332 -59.3281 311.13 -60.2617L310.751 -60.5859C311.568 -61.5416 312.458 -62.4321 313.414 -63.249L313.738 -62.8701C314.672 -63.6681 315.668 -64.3944 316.72 -65.04L316.46 -65.4658C317.526 -66.1203 318.647 -66.6927 319.814 -67.1768L320.005 -66.7168C321.132 -67.1842 322.304 -67.5665 323.512 -67.8555L323.396 -68.3398C324.603 -68.6287 325.846 -68.8271 327.116 -68.9258L327.154 -68.4287C327.763 -68.476 328.379 -68.5 329 -68.5H330.925V-69H334.775V-68.5H338.625V-69H342.475V-68.5H346.325V-69H350.175V-68.5H354.025V-69H357.875V-68.5H361.725V-69H365.575V-68.5H369.425V-69H373.275V-68.5H377.125V-69H380.975V-68.5H384.825V-69H388.675V-68.5H392.525V-69H396.375V-68.5H400.225V-69H404.075V-68.5H406C406.621 -68.5 407.237 -68.476 407.846 -68.4287L407.885 -68.9258C409.155 -68.8271 410.398 -68.6288 411.605 -68.3398L411.488 -67.8555C412.696 -67.5665 413.868 -67.1842 414.995 -66.7168L415.187 -67.1768C416.354 -66.6926 417.475 -66.1203 418.541 -65.4658L418.28 -65.04C419.332 -64.3944 420.328 -63.6681 421.262 -62.8701L421.587 -63.249C422.542 -62.4321 423.433 -61.5416 424.25 -60.5859L423.87 -60.2617C424.668 -59.3281 425.394 -58.3308 426.04 -57.2793L426.467 -57.54C427.121 -56.4742 427.694 -55.3529 428.178 -54.1855L427.717 -53.9951C428.184 -52.8679 428.567 -51.696 428.855 -50.4883L429.341 -50.6045C429.63 -49.3971 429.828 -48.1544 429.927 -46.8838L429.429 -46.8457C429.476 -46.2368 429.5 -45.6212 429.5 -45V-43.0752H430V-39.2246H429.5V-35.375H430V-31.5254H429.5V-27.6748H430V-23.8252H429.5V-19.9746H430V-16.125H429.5V-12.2754H430V-8.4248H429.5V-4.5752H430V-0.724609H429.5V3.125H430V6.97461H429.5V10.8252H430V14.6748H429.5V18.5254H430V22.375H429.5V26.2246H430V30.0752H429.5V32C429.5 32.6212 429.476 33.2368 429.429 33.8457L429.927 33.8848C429.828 35.1554 429.63 36.3981 429.341 37.6055L428.855 37.4883C428.567 38.696 428.184 39.8679 427.717 40.9951L428.178 41.1865C427.694 42.3539 427.121 43.4752 426.467 44.541L426.04 44.2793C425.394 45.3308 424.668 46.3281 423.87 47.2617L424.25 47.5869C423.433 48.5425 422.542 49.4331 421.587 50.25L421.262 49.8701C420.328 50.6683 419.331 51.3943 418.279 52.04L418.541 52.4668C417.475 53.1213 416.354 53.6937 415.187 54.1777L414.995 53.7168C413.868 54.1842 412.696 54.5665 411.488 54.8555L411.605 55.3408C410.398 55.6297 409.155 55.8281 407.885 55.9268L407.846 55.4287C407.237 55.476 406.621 55.5 406 55.5H404.075V56H400.225V55.5H396.375V56H392.525V55.5H388.675V56H384.825V55.5H380.975V56H377.125V55.5H373.275V56H369.425V55.5H365.575V56H361.725V55.5H357.875V56H354.025V55.5H350.175V56H346.325V55.5H342.475V56H338.625V55.5H334.775V56H330.925Z" stroke="#B1BBD6" stroke-dasharray="4 4"/>
<rect x="109.5" y="10.5" width="124" height="124" rx="23.5" stroke="#2D60E3"/>
<rect x="139.5" y="40.5" width="124" height="124" rx="23.5" stroke="#2D60E3"/>
<path d="M177 70.5H270C282.979 70.5 293.5 81.0213 293.5 94V171C293.5 183.979 282.979 194.5 270 194.5H193C180.021 194.5 169.5 183.979 169.5 171V78C169.5 73.8579 172.858 70.5 177 70.5Z" stroke="#B1BBD6"/>
<path d="M186.993 77.5029C187.001 77.5046 187 77.5055 186.993 77.502L187.02 77.5156L187.047 77.5264L195.297 80.6719L195.322 80.6816L195.349 80.6885C195.409 80.7047 195.5 80.8045 195.5 80.9121V87.2041C195.5 90.3714 194.703 92.3748 193.404 93.9209C192.082 95.4943 190.216 96.6308 187.952 98.0156L187.143 98.4785C187.12 98.4903 187.108 98.4954 187.104 98.4971C187.102 98.4977 187.101 98.498 187.101 98.498C187.1 98.4981 187.098 98.4979 187.097 98.498C187.094 98.4983 187.089 98.4987 187.081 98.499C187.063 98.4998 187.04 98.5 187 98.5C186.96 98.5 186.937 98.4998 186.919 98.499C186.911 98.4987 186.906 98.4983 186.903 98.498C186.902 98.4979 186.9 98.4981 186.899 98.498C186.899 98.498 186.898 98.4977 186.896 98.4971L186.857 98.4785L186.048 98.0156C183.784 96.6308 181.918 95.4943 180.596 93.9209C179.297 92.3748 178.5 90.3714 178.5 87.2041V80.9121C178.5 80.8698 178.517 80.8064 178.558 80.7451C178.577 80.7164 178.596 80.6955 178.611 80.6826C178.619 80.6757 178.624 80.6733 178.625 80.6729L178.628 80.6719L186.878 77.5264L186.906 77.5156L186.927 77.5049C186.927 77.5047 186.929 77.5036 186.932 77.5029C186.939 77.5013 186.95 77.5 186.963 77.5C186.975 77.5 186.986 77.5013 186.993 77.5029Z" fill="#F9F9FB" stroke="#B1BBD6"/>
<path d="M192.669 82.8387L185.129 90.3791L181.839 87.0887" stroke="#2D60E3" stroke-linecap="round"/>
</g>
<defs>
<clipPath id="clip0_269_5468">
<rect y="0.162109" width="372" height="174" rx="16" fill="white"/>
</clipPath>
</defs>
</svg>
