<svg width="372" height="175" viewBox="0 0 372 175" fill="none" xmlns="http://www.w3.org/2000/svg">
<g clip-path="url(#clip0_1451_26594)">
<path d="M332.881 173.973C332.881 92.2498 266.897 26 185.5 26C104.104 26 38.1191 92.2498 38.1191 173.973" stroke="#B1BBD6"/>
<path d="M323.41 173.973C323.41 97.48 261.666 35.4702 185.5 35.4702C109.334 35.4702 47.5889 97.48 47.5889 173.973" stroke="#B1BBD6" stroke-linecap="round" stroke-dasharray="4.74 4.74"/>
<path d="M185.739 48.4919V55.3441" stroke="#2D60E3" stroke-miterlimit="10" stroke-linecap="round"/>
<path d="M162.867 50.4916L164.055 57.243" stroke="#2D60E3" stroke-miterlimit="10" stroke-linecap="round"/>
<path d="M140.684 56.4312L143.028 62.8749" stroke="#2D60E3" stroke-miterlimit="10" stroke-linecap="round"/>
<path d="M119.868 66.137L123.294 72.0716" stroke="#2D60E3" stroke-miterlimit="10" stroke-linecap="round"/>
<path d="M101.061 79.3055L105.468 84.556" stroke="#2D60E3" stroke-miterlimit="10" stroke-linecap="round"/>
<path d="M84.8184 95.5398L90.075 99.947" stroke="#2D60E3" stroke-miterlimit="10" stroke-linecap="round"/>
<path d="M71.6475 114.351L77.5883 117.778" stroke="#2D60E3" stroke-miterlimit="10" stroke-linecap="round"/>
<path d="M61.9463 135.157L68.3858 137.506" stroke="#2D60E3" stroke-miterlimit="10" stroke-linecap="round"/>
<path d="M56.001 157.336L62.7534 158.53" stroke="#2D60E3" stroke-miterlimit="10" stroke-linecap="round"/>
<path d="M308.725 158.53L315.477 157.336" stroke="#B1BBD6" stroke-miterlimit="10" stroke-linecap="round"/>
<path d="M303.095 137.506L309.54 135.157" stroke="#B1BBD6" stroke-miterlimit="10" stroke-linecap="round"/>
<path d="M293.894 117.778L299.829 114.351" stroke="#B1BBD6" stroke-miterlimit="10" stroke-linecap="round"/>
<path d="M281.408 99.947L286.66 95.5398" stroke="#B1BBD6" stroke-miterlimit="10" stroke-linecap="round"/>
<path d="M266.016 84.556L270.424 79.3055" stroke="#2D60E3" stroke-miterlimit="10" stroke-linecap="round"/>
<path d="M248.182 72.0716L251.613 66.137" stroke="#2D60E3" stroke-miterlimit="10" stroke-linecap="round"/>
<path d="M228.456 62.8749L230.8 56.4312" stroke="#2D60E3" stroke-miterlimit="10" stroke-linecap="round"/>
<path d="M207.429 57.243L208.617 50.4916" stroke="#2D60E3" stroke-miterlimit="10" stroke-linecap="round"/>
<circle cx="184.316" cy="172.197" r="30.1865" fill="#EBEEF5"/>
<circle cx="184.316" cy="172.197" r="72.3027" stroke="#B1BBD6" stroke-dasharray="4.74 4.74"/>
<path d="M271.325 86.373L265.748 87.8673L269.831 91.9498L271.325 86.373ZM182.541 175.157L182.895 175.51L268.496 89.9086L268.143 89.555L267.789 89.2015L182.187 174.803L182.541 175.157Z" fill="#2D60E3"/>
<circle cx="324.539" cy="44.4209" r="25" stroke="#2D60E3"/>
<path d="M325.039 46.9209C326.696 46.9209 328.039 45.5778 328.039 43.9209C328.039 42.264 326.696 40.9209 325.039 40.9209C323.382 40.9209 322.039 42.264 322.039 43.9209C322.039 45.5778 323.382 46.9209 325.039 46.9209Z" stroke="#2D60E3" stroke-linecap="round" stroke-linejoin="round"/>
<path d="M332.439 46.9209C332.306 47.2225 332.266 47.5571 332.325 47.8815C332.384 48.2059 332.539 48.5052 332.769 48.7409L332.829 48.8009C333.015 48.9866 333.163 49.2072 333.263 49.45C333.364 49.6928 333.416 49.9531 333.416 50.2159C333.416 50.4787 333.364 50.739 333.263 50.9818C333.163 51.2246 333.015 51.4452 332.829 51.6309C332.643 51.8169 332.423 51.9644 332.18 52.065C331.937 52.1657 331.677 52.2175 331.414 52.2175C331.151 52.2175 330.891 52.1657 330.648 52.065C330.405 51.9644 330.185 51.8169 329.999 51.6309L329.939 51.5709C329.703 51.3404 329.404 51.1857 329.08 51.1269C328.755 51.0681 328.421 51.1078 328.119 51.2409C327.823 51.3677 327.571 51.5781 327.393 51.8464C327.216 52.1147 327.12 52.4291 327.119 52.7509V52.9209C327.119 53.4513 326.908 53.96 326.533 54.3351C326.158 54.7102 325.649 54.9209 325.119 54.9209C324.589 54.9209 324.08 54.7102 323.705 54.3351C323.33 53.96 323.119 53.4513 323.119 52.9209V52.8309C323.111 52.4999 323.004 52.1789 322.812 51.9096C322.619 51.6403 322.35 51.4352 322.039 51.3209C321.737 51.1878 321.403 51.1481 321.078 51.2069C320.754 51.2657 320.455 51.4204 320.219 51.6509L320.159 51.7109C319.973 51.8969 319.753 52.0444 319.51 52.145C319.267 52.2457 319.007 52.2975 318.744 52.2975C318.481 52.2975 318.221 52.2457 317.978 52.145C317.735 52.0444 317.515 51.8969 317.329 51.7109C317.143 51.5252 316.996 51.3046 316.895 51.0618C316.794 50.819 316.742 50.5587 316.742 50.2959C316.742 50.0331 316.794 49.7728 316.895 49.53C316.996 49.2872 317.143 49.0666 317.329 48.8809L317.389 48.8209C317.62 48.5852 317.774 48.2859 317.833 47.9615C317.892 47.6371 317.852 47.3025 317.719 47.0009C317.592 46.7051 317.382 46.4529 317.114 46.2752C316.845 46.0975 316.531 46.0022 316.209 46.0009H316.039C315.509 46.0009 315 45.7902 314.625 45.4151C314.25 45.04 314.039 44.5313 314.039 44.0009C314.039 43.4705 314.25 42.9618 314.625 42.5867C315 42.2116 315.509 42.0009 316.039 42.0009H316.129C316.46 41.9932 316.781 41.886 317.05 41.6934C317.32 41.5008 317.525 41.2316 317.639 40.9209C317.772 40.6193 317.812 40.2847 317.753 39.9603C317.694 39.6359 317.54 39.3366 317.309 39.1009L317.249 39.0409C317.063 38.8552 316.916 38.6346 316.815 38.3918C316.714 38.149 316.662 37.8887 316.662 37.6259C316.662 37.3631 316.714 37.1028 316.815 36.86C316.916 36.6172 317.063 36.3966 317.249 36.2109C317.435 36.0249 317.655 35.8774 317.898 35.7768C318.141 35.6761 318.401 35.6243 318.664 35.6243C318.927 35.6243 319.187 35.6761 319.43 35.7768C319.673 35.8774 319.893 36.0249 320.079 36.2109L320.139 36.2709C320.375 36.5014 320.674 36.6561 320.998 36.7149C321.323 36.7737 321.657 36.734 321.959 36.6009H322.039C322.335 36.4741 322.587 36.2637 322.765 35.9954C322.942 35.7271 323.038 35.4127 323.039 35.0909V34.9209C323.039 34.3905 323.25 33.8818 323.625 33.5067C324 33.1316 324.509 32.9209 325.039 32.9209C325.569 32.9209 326.078 33.1316 326.453 33.5067C326.828 33.8818 327.039 34.3905 327.039 34.9209V35.0109C327.04 35.3327 327.136 35.6471 327.313 35.9154C327.491 36.1837 327.743 36.3941 328.039 36.5209C328.341 36.654 328.675 36.6937 329 36.6349C329.324 36.5761 329.623 36.4214 329.859 36.1909L329.919 36.1309C330.105 35.9449 330.325 35.7974 330.568 35.6968C330.811 35.5961 331.071 35.5443 331.334 35.5443C331.597 35.5443 331.857 35.5961 332.1 35.6968C332.343 35.7974 332.563 35.9449 332.749 36.1309C332.935 36.3166 333.083 36.5372 333.183 36.78C333.284 37.0228 333.336 37.2831 333.336 37.5459C333.336 37.8087 333.284 38.069 333.183 38.3118C333.083 38.5546 332.935 38.7752 332.749 38.9609L332.689 39.0209C332.459 39.2566 332.304 39.5559 332.245 39.8803C332.186 40.2047 332.226 40.5393 332.359 40.8409V40.9209C332.486 41.2167 332.696 41.4689 332.965 41.6466C333.233 41.8243 333.547 41.9196 333.869 41.9209H334.039C334.569 41.9209 335.078 42.1316 335.453 42.5067C335.828 42.8818 336.039 43.3905 336.039 43.9209C336.039 44.4513 335.828 44.96 335.453 45.3351C335.078 45.7102 334.569 45.9209 334.039 45.9209H333.949C333.627 45.9222 333.313 46.0175 333.045 46.1952C332.776 46.3729 332.566 46.6251 332.439 46.9209Z" stroke="#2D60E3" stroke-linecap="round" stroke-linejoin="round"/>
<path d="M323.113 12L325 13.863C307.879 13.863 294 27.5657 294 44.4688C294 60.6477 306.715 73.8945 322.818 75" stroke="#B1BBD6" stroke-linecap="round"/>
<path d="M326.887 77L325 75.1339C342.121 75.1339 356 61.4085 356 44.4772C356 28.6735 343.908 15.6628 328.374 14" stroke="#B1BBD6" stroke-linecap="round"/>
<path d="M48 28H78" stroke="#B1BBD6" stroke-linecap="round"/>
<path d="M52 31H66" stroke="#B1BBD6" stroke-linecap="round"/>
<path d="M58 34C65.2898 34 68.7102 34 76 34" stroke="#B1BBD6" stroke-linecap="round"/>
<path d="M48 37H82" stroke="#B1BBD6" stroke-linecap="round"/>
<path d="M99.1694 27.8387L91.6291 35.3791L88.3389 32.0887" stroke="#2D60E3" stroke-linecap="round"/>
<rect x="85" y="24.5" width="16" height="16" rx="3.8871" stroke="#B1BBD6"/>
<path d="M18 50H48" stroke="#B1BBD6" stroke-linecap="round"/>
<path d="M18 53H32" stroke="#B1BBD6" stroke-linecap="round"/>
<path d="M18 56C25.2898 56 38.7102 56 46 56" stroke="#B1BBD6" stroke-linecap="round"/>
<path d="M28 59H52" stroke="#B1BBD6" stroke-linecap="round"/>
<path d="M69.1694 49.8387L61.6291 57.3791L58.3389 54.0887" stroke="#2D60E3" stroke-linecap="round"/>
<rect x="55" y="46.5" width="16" height="16" rx="3.8871" stroke="#B1BBD6"/>
</g>
<defs>
<clipPath id="clip0_1451_26594">
<rect y="0.162109" width="372" height="174" rx="16" fill="white"/>
</clipPath>
</defs>
</svg>
