<svg xmlns="http://www.w3.org/2000/svg" viewBox="0 0 24 24" fill="#FFE01B">
  <path d="M12 0C5.373 0 0 5.373 0 12s5.373 12 12 12 12-5.373 12-12S18.627 0 12 0zm5.5 16.5c-.5 1-1.5 1.5-2.5 1.5-1.5 0-2.5-1-2.5-2.5v-.5c0-.5.5-1 1-1s1 .5 1 1v.5c0 .5.5 1 .5 1s.5-.5.5-1v-3c0-.5-.5-1-.5-1H8c-.5 0-1 .5-1 1v3c0 1.5 1 2.5 2.5 2.5 1 0 2-.5 2.5-1.5.5 1 1.5 1.5 2.5 1.5 1.5 0 2.5-1 2.5-2.5v-3c0-1.5-1-2.5-2.5-2.5h-5c-1.5 0-2.5 1-2.5 2.5v3c0 2 1.5 3.5 3.5 3.5 1 0 2-.5 2.5-1 .5.5 1.5 1 2.5 1 2 0 3.5-1.5 3.5-3.5v-3c0-2-1.5-3.5-3.5-3.5h-5c-2 0-3.5 1.5-3.5 3.5v3c0 2.5 2 4.5 4.5 4.5 1.5 0 2.5-.5 3.5-1.5z"/>
</svg>